<?xml version="1.0" standalone="no"?>
<!DOCTYPE svg PUBLIC "-//W3C//DTD SVG 20010904//EN"
 "http://www.w3.org/TR/2001/REC-SVG-20010904/DTD/svg10.dtd">
<svg version="1.0" xmlns="http://www.w3.org/2000/svg"
 width="400.000000pt" height="400.000000pt" viewBox="0 0 400.000000 400.000000"
 preserveAspectRatio="xMidYMid meet">

<g transform="translate(0.000000,400.000000) scale(0.100000,-0.100000)"
fill="#000000" stroke="none">
<path d="M0 2000 l0 -2000 2000 0 2000 0 0 2000 0 2000 -2000 0 -2000 0 0
-2000z m2340 1587 c195 -46 339 -106 487 -203 224 -145 392 -329 517 -565 177
-334 217 -738 111 -1111 -26 -91 -87 -239 -122 -296 l-20 -32 -36 57 c-185
298 -610 346 -861 98 -213 -210 -222 -550 -21 -773 l57 -62 -25 -9 c-48 -19
-176 -41 -291 -51 -180 -16 -382 7 -556 62 -36 11 -67 22 -69 24 -2 2 14 23
36 48 189 214 176 552 -27 756 -112 111 -239 164 -395 164 -151 0 -279 -51
-389 -156 -33 -32 -61 -56 -62 -55 -1 1 -18 41 -38 88 -80 194 -112 388 -103
623 14 369 154 697 410 963 125 130 238 215 387 292 137 70 252 112 386 140
138 29 148 29 344 26 143 -3 194 -8 280 -28z m-1103 -2092 c163 -48 274 -215
260 -388 -8 -96 -50 -179 -123 -247 l-56 -51 -47 27 c-151 87 -337 252 -438
388 -50 67 -51 71 -37 98 76 147 271 223 441 173z m1725 -17 c78 -36 142 -98
177 -172 57 -117 58 -112 -66 -234 -106 -105 -203 -179 -324 -247 -33 -19 -69
-35 -78 -35 -56 0 -177 119 -213 209 -34 85 -32 206 5 284 50 108 127 180 230
213 68 22 200 13 269 -18z"/>
<path d="M2405 3276 c-69 -17 -109 -40 -155 -87 -97 -100 -121 -249 -60 -375
29 -58 118 -138 176 -158 61 -21 167 -20 230 1 70 23 165 120 188 191 22 64
22 162 1 221 -53 152 -226 246 -380 207z m144 -194 c49 -26 73 -75 68 -135 -3
-40 -11 -56 -41 -85 -33 -34 -41 -37 -94 -37 -65 0 -102 21 -127 72 -61 125
71 251 194 185z"/>
<path d="M1844 2704 c-16 -8 -139 -124 -271 -257 -271 -272 -276 -280 -252
-381 11 -49 24 -64 280 -321 l269 -271 0 -307 0 -307 95 0 95 0 0 342 0 343
-282 282 -283 283 215 215 215 215 235 -235 236 -235 297 0 297 0 0 95 0 95
-263 0 -262 0 -215 216 c-118 118 -227 222 -242 230 -35 18 -125 18 -164 -2z"/>
</g>
</svg>
